<svg width="20" height="18" viewBox="0 0 20 18" fill="none" xmlns="http://www.w3.org/2000/svg">
<path d="M19.707 8.29291L11.707 0.292914C11.5672 0.153061 11.389 0.0578154 11.195 0.019223C11.0011 -0.0193694 10.8 0.000424638 10.6173 0.076102C10.4346 0.151779 10.2784 0.279941 10.1685 0.444379C10.0586 0.608817 10 0.802145 10 0.999914V4.54483C7.2683 4.79768 4.72926 6.06078 2.87973 8.08695C1.0302 10.1131 0.0033085 12.7565 2.93403e-09 15.4999V16.9999C-1.59013e-05 17.2076 0.0646263 17.4101 0.184952 17.5794C0.305279 17.7486 0.475319 17.8763 0.671467 17.9445C0.867616 18.0127 1.08014 18.0182 1.27954 17.9601C1.47893 17.9021 1.65531 17.7834 1.78418 17.6205C2.76383 16.4555 3.96583 15.4973 5.31997 14.802C6.6741 14.1068 8.15322 13.6884 9.6709 13.5712C9.7207 13.5649 9.8457 13.5551 10 13.5453V16.9999C10 17.1977 10.0586 17.391 10.1685 17.5555C10.2784 17.7199 10.4346 17.848 10.6173 17.9237C10.8 17.9994 11.0011 18.0192 11.195 17.9806C11.389 17.942 11.5672 17.8468 11.707 17.7069L19.707 9.70691C19.7999 9.61408 19.8735 9.50387 19.9238 9.38256C19.9741 9.26125 19.9999 9.13122 19.9999 8.99991C19.9999 8.8686 19.9741 8.73858 19.9238 8.61727C19.8735 8.49596 19.7999 8.38574 19.707 8.29291ZM12 14.5859V12.4999C12 12.3686 11.9742 12.2385 11.9239 12.1172C11.8737 11.9958 11.8 11.8856 11.7072 11.7927C11.6143 11.6999 11.5041 11.6262 11.3827 11.576C11.2614 11.5257 11.1313 11.4999 11 11.4999C10.7451 11.4999 9.7041 11.5492 9.43848 11.5849C6.74307 11.8332 4.17736 12.8572 2.05176 14.5331C2.29289 12.3274 3.33918 10.2882 4.99026 8.80598C6.64135 7.32373 8.78119 6.50263 11 6.49991C11.1313 6.49995 11.2614 6.47411 11.3827 6.42386C11.5041 6.37362 11.6143 6.29996 11.7072 6.2071C11.8 6.11423 11.8737 6.00398 11.9239 5.88264C11.9742 5.7613 12 5.63125 12 5.49991V3.41397L17.5859 8.99991L12 14.5859Z" fill="white"/>
</svg>
